<svg width="785" height="378" viewBox="0 0 785 378" fill="none" xmlns="http://www.w3.org/2000/svg">
<rect width="785" height="378" fill="#121212"/>
<path fill-rule="evenodd" clip-rule="evenodd" d="M303.532 84C309.038 84 313.501 88.4772 313.501 94V134H329.094C334.6 134 339.063 138.477 339.063 144C339.063 149.523 334.6 154 329.094 154H313.501V218.359C313.501 226.997 320.482 234 329.094 234C337.706 234 344.687 226.997 344.687 218.359V191.756C344.687 172.072 360.595 156.115 380.219 156.115C399.842 156.115 415.751 172.072 415.751 191.756V205.859C415.751 214.497 422.732 221.5 431.344 221.5C439.955 221.5 446.937 214.497 446.937 205.859V191.756C446.937 172.072 462.845 156.115 482.468 156.115C502.092 156.115 518 172.072 518 191.756V244C518 249.523 513.537 254 508.031 254C502.525 254 498.061 249.523 498.061 244V191.756C498.061 183.118 491.08 176.115 482.468 176.115C473.857 176.115 466.875 183.118 466.875 191.756V205.859C466.875 225.543 450.967 241.5 431.344 241.5C411.72 241.5 395.812 225.543 395.812 205.859V191.756C395.812 183.118 388.831 176.115 380.219 176.115C371.607 176.115 364.626 183.118 364.626 191.756V218.359C364.626 238.043 348.718 254 329.094 254C309.47 254 293.562 238.043 293.562 218.359V154H277.969C272.463 154 268 149.523 268 144C268 138.477 272.463 134 277.969 134H293.562V94C293.562 88.4772 298.026 84 303.532 84Z" fill="#34D89D"/>
<path d="M302.384 288V272.864H305.398V288H302.384ZM297.456 275.196V272.534H310.326V275.196H297.456ZM316.723 288.22C315.608 288.22 314.618 287.985 313.753 287.516C312.888 287.032 312.198 286.372 311.685 285.536C311.186 284.7 310.937 283.747 310.937 282.676C310.937 281.62 311.179 280.681 311.663 279.86C312.162 279.024 312.836 278.364 313.687 277.88C314.538 277.381 315.484 277.132 316.525 277.132C317.552 277.132 318.454 277.367 319.231 277.836C320.023 278.291 320.639 278.921 321.079 279.728C321.534 280.52 321.761 281.422 321.761 282.434C321.761 282.625 321.746 282.823 321.717 283.028C321.702 283.219 321.666 283.439 321.607 283.688L312.675 283.71V281.554L320.265 281.532L319.099 282.434C319.07 281.803 318.952 281.275 318.747 280.85C318.556 280.425 318.27 280.102 317.889 279.882C317.522 279.647 317.068 279.53 316.525 279.53C315.953 279.53 315.454 279.662 315.029 279.926C314.604 280.175 314.274 280.535 314.039 281.004C313.819 281.459 313.709 282.001 313.709 282.632C313.709 283.277 313.826 283.842 314.061 284.326C314.31 284.795 314.662 285.162 315.117 285.426C315.572 285.675 316.1 285.8 316.701 285.8C317.244 285.8 317.735 285.712 318.175 285.536C318.615 285.345 318.996 285.067 319.319 284.7L321.013 286.394C320.5 286.995 319.869 287.45 319.121 287.758C318.388 288.066 317.588 288.22 316.723 288.22ZM327.048 288V272.952H329.93V288H327.048ZM324.562 279.904V277.374H332.416V279.904H324.562ZM336.236 288V277.374H339.118V288H336.236ZM339.118 282.126L337.996 281.378C338.128 280.073 338.51 279.046 339.14 278.298C339.771 277.535 340.68 277.154 341.868 277.154C342.382 277.154 342.844 277.242 343.254 277.418C343.665 277.579 344.039 277.851 344.376 278.232L342.572 280.3C342.411 280.124 342.213 279.992 341.978 279.904C341.758 279.816 341.502 279.772 341.208 279.772C340.592 279.772 340.086 279.97 339.69 280.366C339.309 280.747 339.118 281.334 339.118 282.126ZM351.732 288.22C350.764 288.22 349.891 287.978 349.114 287.494C348.337 287.01 347.728 286.35 347.288 285.514C346.848 284.678 346.628 283.739 346.628 282.698C346.628 281.642 346.848 280.696 347.288 279.86C347.728 279.024 348.337 278.364 349.114 277.88C349.891 277.396 350.764 277.154 351.732 277.154C352.495 277.154 353.177 277.308 353.778 277.616C354.379 277.924 354.856 278.357 355.208 278.914C355.575 279.457 355.773 280.073 355.802 280.762V284.59C355.773 285.294 355.575 285.917 355.208 286.46C354.856 287.003 354.379 287.435 353.778 287.758C353.177 288.066 352.495 288.22 351.732 288.22ZM352.26 285.558C353.067 285.558 353.719 285.294 354.218 284.766C354.717 284.223 354.966 283.527 354.966 282.676C354.966 282.119 354.849 281.627 354.614 281.202C354.394 280.762 354.079 280.425 353.668 280.19C353.272 279.941 352.803 279.816 352.26 279.816C351.732 279.816 351.263 279.941 350.852 280.19C350.456 280.425 350.141 280.762 349.906 281.202C349.686 281.627 349.576 282.119 349.576 282.676C349.576 283.248 349.686 283.754 349.906 284.194C350.141 284.619 350.456 284.957 350.852 285.206C351.263 285.441 351.732 285.558 352.26 285.558ZM354.812 288V285.14L355.274 282.544L354.812 279.992V277.374H357.672V288H354.812ZM366.91 288.22C365.927 288.22 365.047 287.978 364.27 287.494C363.492 287.01 362.876 286.35 362.422 285.514C361.982 284.678 361.762 283.739 361.762 282.698C361.762 281.642 361.982 280.696 362.422 279.86C362.876 279.024 363.485 278.364 364.248 277.88C365.025 277.396 365.912 277.154 366.91 277.154C367.672 277.154 368.354 277.308 368.956 277.616C369.572 277.924 370.063 278.357 370.43 278.914C370.811 279.457 371.016 280.073 371.046 280.762V284.546C371.016 285.235 370.818 285.859 370.452 286.416C370.085 286.973 369.594 287.413 368.978 287.736C368.362 288.059 367.672 288.22 366.91 288.22ZM367.394 285.558C367.936 285.558 368.406 285.441 368.802 285.206C369.212 284.957 369.528 284.619 369.748 284.194C369.982 283.754 370.1 283.248 370.1 282.676C370.1 282.119 369.982 281.627 369.748 281.202C369.528 280.762 369.212 280.425 368.802 280.19C368.406 279.941 367.944 279.816 367.416 279.816C366.873 279.816 366.396 279.941 365.986 280.19C365.59 280.439 365.274 280.777 365.04 281.202C364.82 281.627 364.71 282.119 364.71 282.676C364.71 283.248 364.82 283.754 365.04 284.194C365.274 284.619 365.597 284.957 366.008 285.206C366.418 285.441 366.88 285.558 367.394 285.558ZM372.806 288H369.946V285.14L370.408 282.544L369.924 279.992V272.094H372.806V288ZM384.36 288V272.534H386.472L392.742 282.566H391.532L397.78 272.534H399.892V288H396.922V277.66L397.494 277.836L393.138 284.832H391.114L386.758 277.836L387.352 277.66V288H384.36ZM409.387 288.22C408.419 288.22 407.547 287.978 406.769 287.494C405.992 287.01 405.383 286.35 404.943 285.514C404.503 284.678 404.283 283.739 404.283 282.698C404.283 281.642 404.503 280.696 404.943 279.86C405.383 279.024 405.992 278.364 406.769 277.88C407.547 277.396 408.419 277.154 409.387 277.154C410.15 277.154 410.832 277.308 411.433 277.616C412.035 277.924 412.511 278.357 412.863 278.914C413.23 279.457 413.428 280.073 413.457 280.762V284.59C413.428 285.294 413.23 285.917 412.863 286.46C412.511 287.003 412.035 287.435 411.433 287.758C410.832 288.066 410.15 288.22 409.387 288.22ZM409.915 285.558C410.722 285.558 411.375 285.294 411.873 284.766C412.372 284.223 412.621 283.527 412.621 282.676C412.621 282.119 412.504 281.627 412.269 281.202C412.049 280.762 411.734 280.425 411.323 280.19C410.927 279.941 410.458 279.816 409.915 279.816C409.387 279.816 408.918 279.941 408.507 280.19C408.111 280.425 407.796 280.762 407.561 281.202C407.341 281.627 407.231 282.119 407.231 282.676C407.231 283.248 407.341 283.754 407.561 284.194C407.796 284.619 408.111 284.957 408.507 285.206C408.918 285.441 409.387 285.558 409.915 285.558ZM412.467 288V285.14L412.929 282.544L412.467 279.992V277.374H415.327V288H412.467ZM420.077 288V277.374H422.959V288H420.077ZM422.959 282.126L421.837 281.378C421.969 280.073 422.35 279.046 422.981 278.298C423.612 277.535 424.521 277.154 425.709 277.154C426.222 277.154 426.684 277.242 427.095 277.418C427.506 277.579 427.88 277.851 428.217 278.232L426.413 280.3C426.252 280.124 426.054 279.992 425.819 279.904C425.599 279.816 425.342 279.772 425.049 279.772C424.433 279.772 423.927 279.97 423.531 280.366C423.15 280.747 422.959 281.334 422.959 282.126ZM438.205 288L434.091 282.522L438.183 277.374H441.505L436.709 283.182L436.819 281.774L441.725 288H438.205ZM431.429 288V272.094H434.311V288H431.429ZM449.84 288.22C448.726 288.22 447.736 287.985 446.87 287.516C446.005 287.032 445.316 286.372 444.802 285.536C444.304 284.7 444.054 283.747 444.054 282.676C444.054 281.62 444.296 280.681 444.78 279.86C445.279 279.024 445.954 278.364 446.804 277.88C447.655 277.381 448.601 277.132 449.642 277.132C450.669 277.132 451.571 277.367 452.348 277.836C453.14 278.291 453.756 278.921 454.196 279.728C454.651 280.52 454.878 281.422 454.878 282.434C454.878 282.625 454.864 282.823 454.834 283.028C454.82 283.219 454.783 283.439 454.724 283.688L445.792 283.71V281.554L453.382 281.532L452.216 282.434C452.187 281.803 452.07 281.275 451.864 280.85C451.674 280.425 451.388 280.102 451.006 279.882C450.64 279.647 450.185 279.53 449.642 279.53C449.07 279.53 448.572 279.662 448.146 279.926C447.721 280.175 447.391 280.535 447.156 281.004C446.936 281.459 446.826 282.001 446.826 282.632C446.826 283.277 446.944 283.842 447.178 284.326C447.428 284.795 447.78 285.162 448.234 285.426C448.689 285.675 449.217 285.8 449.818 285.8C450.361 285.8 450.852 285.712 451.292 285.536C451.732 285.345 452.114 285.067 452.436 284.7L454.13 286.394C453.617 286.995 452.986 287.45 452.238 287.758C451.505 288.066 450.706 288.22 449.84 288.22ZM460.165 288V272.952H463.047V288H460.165ZM457.679 279.904V277.374H465.533V279.904H457.679ZM469.354 288V277.374H472.258V288H469.354ZM470.806 275.658C470.336 275.658 469.948 275.504 469.64 275.196C469.332 274.873 469.178 274.477 469.178 274.008C469.178 273.553 469.332 273.165 469.64 272.842C469.948 272.519 470.336 272.358 470.806 272.358C471.29 272.358 471.678 272.519 471.972 272.842C472.28 273.165 472.434 273.553 472.434 274.008C472.434 274.477 472.28 274.873 471.972 275.196C471.678 275.504 471.29 275.658 470.806 275.658ZM484.161 288V281.906C484.161 281.275 483.963 280.762 483.567 280.366C483.171 279.97 482.657 279.772 482.027 279.772C481.616 279.772 481.249 279.86 480.927 280.036C480.604 280.212 480.347 280.461 480.157 280.784C479.981 281.107 479.893 281.481 479.893 281.906L478.771 281.334C478.771 280.498 478.947 279.772 479.299 279.156C479.665 278.525 480.164 278.034 480.795 277.682C481.44 277.33 482.166 277.154 482.973 277.154C483.75 277.154 484.447 277.352 485.063 277.748C485.679 278.129 486.163 278.635 486.515 279.266C486.867 279.882 487.043 280.549 487.043 281.268V288H484.161ZM477.011 288V277.374H479.893V288H477.011ZM496.008 292.708C494.879 292.708 493.881 292.503 493.016 292.092C492.151 291.696 491.461 291.131 490.948 290.398L492.774 288.572C493.185 289.056 493.639 289.423 494.138 289.672C494.651 289.936 495.267 290.068 495.986 290.068C496.881 290.068 497.585 289.841 498.098 289.386C498.626 288.931 498.89 288.301 498.89 287.494V284.832L499.374 282.5L498.912 280.168V277.374H501.772V287.45C501.772 288.506 501.523 289.423 501.024 290.2C500.54 290.992 499.865 291.608 499 292.048C498.135 292.488 497.137 292.708 496.008 292.708ZM495.876 287.714C494.923 287.714 494.065 287.487 493.302 287.032C492.539 286.563 491.938 285.925 491.498 285.118C491.073 284.311 490.86 283.409 490.86 282.412C490.86 281.415 491.073 280.52 491.498 279.728C491.938 278.936 492.539 278.313 493.302 277.858C494.065 277.389 494.923 277.154 495.876 277.154C496.668 277.154 497.365 277.308 497.966 277.616C498.582 277.924 499.066 278.349 499.418 278.892C499.77 279.42 499.961 280.043 499.99 280.762V284.106C499.961 284.81 499.763 285.441 499.396 285.998C499.044 286.541 498.56 286.966 497.944 287.274C497.343 287.567 496.653 287.714 495.876 287.714ZM496.448 285.096C496.976 285.096 497.431 284.986 497.812 284.766C498.208 284.531 498.516 284.216 498.736 283.82C498.956 283.409 499.066 282.947 499.066 282.434C499.066 281.906 498.956 281.444 498.736 281.048C498.516 280.652 498.208 280.344 497.812 280.124C497.431 279.889 496.976 279.772 496.448 279.772C495.92 279.772 495.458 279.889 495.062 280.124C494.666 280.344 494.358 280.659 494.138 281.07C493.918 281.466 493.808 281.921 493.808 282.434C493.808 282.933 493.918 283.387 494.138 283.798C494.358 284.194 494.666 284.509 495.062 284.744C495.458 284.979 495.92 285.096 496.448 285.096Z" fill="white"/>
</svg>
